o Disc
v 0 0 0
v 0.98078528040323043 0 0.19509032201612825
v 1 0 0
v 0 0 0
v 0.92387953251128674 0 0.38268343236508978
v 0.98078528040323043 0 0.19509032201612825
v 0 0 0
v 0.83146961230254524 0 0.55557023301960218
v 0.92387953251128674 0 0.38268343236508978
v 0 0 0
v 0.70710678118654757 0 0.70710678118654746
v 0.83146961230254524 0 0.55557023301960218
v 0 0 0
v 0.55557023301960229 0 0.83146961230254524
v 0.70710678118654757 0 0.70710678118654746
v 0 0 0
v 0.38268343236508984 0 0.92387953251128674
v 0.55557023301960229 0 0.83146961230254524
v 0 0 0
v 0.19509032201612833 0 0.98078528040323043
v 0.38268343236508984 0 0.92387953251128674
v 0 0 0
v 6.1230317691118863E-17 0 1
v 0.19509032201612833 0 0.98078528040323043
v 0 0 0
v -0.19509032201612797 0 0.98078528040323054
v 6.1230317691118863E-17 0 1
v 0 0 0
v -0.38268343236508973 0 0.92387953251128674
v -0.19509032201612797 0 0.98078528040323054
v 0 0 0
v -0.55557023301960229 0 0.83146961230254512
v -0.38268343236508973 0 0.92387953251128674
v 0 0 0
v -0.70710678118654746 0 0.70710678118654757
v -0.55557023301960229 0 0.83146961230254512
v 0 0 0
v -0.83146961230254535 0 0.55557023301960218
v -0.70710678118654746 0 0.70710678118654757
v 0 0 0
v -0.92387953251128674 0 0.38268343236508989
v -0.83146961230254535 0 0.55557023301960218
v 0 0 0
v -0.98078528040323043 0 0.19509032201612817
v -0.92387953251128674 0 0.38268343236508989
v 0 0 0
v -1 0 1.2246063538223773E-16
v -0.98078528040323043 0 0.19509032201612817
v 0 0 0
v -0.98078528040323054 0 -0.19509032201612792
v -1 0 1.2246063538223773E-16
v 0 0 0
v -0.923879532511287 0 -0.38268343236508923
v -0.98078528040323054 0 -0.19509032201612792
v 0 0 0
v -0.83146961230254524 0 -0.55557023301960229
v -0.923879532511287 0 -0.38268343236508923
v 0 0 0
v -0.70710678118654768 0 -0.70710678118654746
v -0.83146961230254524 0 -0.55557023301960229
v 0 0 0
v -0.555570233019603 0 -0.83146961230254479
v -0.70710678118654768 0 -0.70710678118654746
v 0 0 0
v -0.3826834323650895 0 -0.92387953251128685
v -0.555570233019603 0 -0.83146961230254479
v 0 0 0
v -0.19509032201612866 0 -0.98078528040323032
v -0.3826834323650895 0 -0.92387953251128685
v 0 0 0
v -1.8369095307335659E-16 0 -1
v -0.19509032201612866 0 -0.98078528040323032
v 0 0 0
v 0.1950903220161283 0 -0.98078528040323043
v -1.8369095307335659E-16 0 -1
v 0 0 0
v 0.38268343236509 0 -0.92387953251128663
v 0.1950903220161283 0 -0.98078528040323043
v 0 0 0
v 0.55557023301960184 0 -0.83146961230254546
v 0.38268343236509 0 -0.92387953251128663
v 0 0 0
v 0.70710678118654735 0 -0.70710678118654768
v 0.55557023301960184 0 -0.83146961230254546
v 0 0 0
v 0.83146961230254524 0 -0.55557023301960218
v 0.70710678118654735 0 -0.70710678118654768
v 0 0 0
v 0.92387953251128685 0 -0.38268343236508956
v 0.83146961230254524 0 -0.55557023301960218
v 0 0 0
v 0.98078528040323032 0 -0.19509032201612872
v 0.92387953251128685 0 -0.38268343236508956
v 0 0 0
v 1 0 0
v 0.98078528040323032 0 -0.19509032201612872
vn 0 1 0
vn 0 1 0
vn 0 1 0
vn 0 1 0
vn 0 1 0
vn 0 1 0
vn 0 1 0
vn 0 1 0
vn 0 1 0
vn 0 1 0
vn 0 1 0
vn 0 1 0
vn 0 1 0
vn 0 1 0
vn 0 1 0
vn 0 1 0
vn 0 1 0
vn 0 1 0
vn 0 1 0
vn 0 1 0
vn 0 1 0
vn 0 1 0
vn 0 1 0
vn 0 1 0
vn 0 1 0
vn 0 1 0
vn 0 1 0
vn 0 1 0
vn 0 1 0
vn 0 1 0
vn 0 1 0
vn 0 1 0
vn 0 1 0
vn 0 1 0
vn 0 1 0
vn 0 1 0
vn 0 1 0
vn 0 1 0
vn 0 1 0
vn 0 1 0
vn 0 1 0
vn 0 1 0
vn 0 1 0
vn 0 1 0
vn 0 1 0
vn 0 1 0
vn 0 1 0
vn 0 1 0
vn 0 1 0
vn 0 1 0
vn 0 1 0
vn 0 1 0
vn 0 1 0
vn 0 1 0
vn 0 1 0
vn 0 1 0
vn 0 1 0
vn 0 1 0
vn 0 1 0
vn 0 1 0
vn 0 1 0
vn 0 1 0
vn 0 1 0
vn 0 1 0
vn 0 1 0
vn 0 1 0
vn 0 1 0
vn 0 1 0
vn 0 1 0
vn 0 1 0
vn 0 1 0
vn 0 1 0
vn 0 1 0
vn 0 1 0
vn 0 1 0
vn 0 1 0
vn 0 1 0
vn 0 1 0
vn 0 1 0
vn 0 1 0
vn 0 1 0
vn 0 1 0
vn 0 1 0
vn 0 1 0
vn 0 1 0
vn 0 1 0
vn 0 1 0
vn 0 1 0
vn 0 1 0
vn 0 1 0
vn 0 1 0
vn 0 1 0
vn 0 1 0
vn 0 1 0
vn 0 1 0
vn 0 1 0
vt 0.5 0.5
vt 0.99039264020161522 0.5975451610080641
vt 1 0.5
vt 0.5 0.5
vt 0.96193976625564337 0.69134171618254492
vt 0.99039264020161522 0.5975451610080641
vt 0.5 0.5
vt 0.91573480615127267 0.77778511650980109
vt 0.96193976625564337 0.69134171618254492
vt 0.5 0.5
vt 0.85355339059327373 0.85355339059327373
vt 0.91573480615127267 0.77778511650980109
vt 0.5 0.5
vt 0.77778511650980109 0.91573480615127267
vt 0.85355339059327373 0.85355339059327373
vt 0.5 0.5
vt 0.69134171618254492 0.96193976625564337
vt 0.77778511650980109 0.91573480615127267
vt 0.5 0.5
vt 0.59754516100806421 0.99039264020161522
vt 0.69134171618254492 0.96193976625564337
vt 0.5 0.5
vt 0.5 1
vt 0.59754516100806421 0.99039264020161522
vt 0.5 0.5
vt 0.402454838991936 0.99039264020161522
vt 0.5 1
vt 0.5 0.5
vt 0.30865828381745514 0.96193976625564337
vt 0.402454838991936 0.99039264020161522
vt 0.5 0.5
vt 0.22221488349019886 0.91573480615127256
vt 0.30865828381745514 0.96193976625564337
vt 0.5 0.5
vt 0.14644660940672627 0.85355339059327373
vt 0.22221488349019886 0.91573480615127256
vt 0.5 0.5
vt 0.084265193848727327 0.77778511650980109
vt 0.14644660940672627 0.85355339059327373
vt 0.5 0.5
vt 0.038060233744356631 0.69134171618254492
vt 0.084265193848727327 0.77778511650980109
vt 0.5 0.5
vt 0.0096073597983847847 0.5975451610080641
vt 0.038060233744356631 0.69134171618254492
vt 0.5 0.5
vt 0 0.50000000000000011
vt 0.0096073597983847847 0.5975451610080641
vt 0.5 0.5
vt 0.00960735979838473 0.402454838991936
vt 0 0.50000000000000011
vt 0.5 0.5
vt 0.03806023374435652 0.30865828381745541
vt 0.00960735979838473 0.402454838991936
vt 0.5 0.5
vt 0.084265193848727382 0.22221488349019886
vt 0.03806023374435652 0.30865828381745541
vt 0.5 0.5
vt 0.14644660940672616 0.14644660940672627
vt 0.084265193848727382 0.22221488349019886
vt 0.5 0.5
vt 0.22221488349019852 0.0842651938487276
vt 0.14644660940672616 0.14644660940672627
vt 0.5 0.5
vt 0.30865828381745525 0.038060233744356575
vt 0.22221488349019852 0.0842651938487276
vt 0.5 0.5
vt 0.40245483899193568 0.00960735979838484
vt 0.30865828381745525 0.038060233744356575
vt 0.5 0.5
vt 0.49999999999999989 0
vt 0.40245483899193568 0.00960735979838484
vt 0.5 0.5
vt 0.59754516100806421 0.0096073597983847847
vt 0.49999999999999989 0
vt 0.5 0.5
vt 0.691341716182545 0.038060233744356686
vt 0.59754516100806421 0.0096073597983847847
vt 0.5 0.5
vt 0.77778511650980087 0.084265193848727271
vt 0.691341716182545 0.038060233744356686
vt 0.5 0.5
vt 0.85355339059327373 0.14644660940672616
vt 0.77778511650980087 0.084265193848727271
vt 0.5 0.5
vt 0.91573480615127267 0.22221488349019891
vt 0.85355339059327373 0.14644660940672616
vt 0.5 0.5
vt 0.96193976625564348 0.30865828381745519
vt 0.91573480615127267 0.22221488349019891
vt 0.5 0.5
vt 0.99039264020161522 0.40245483899193563
vt 0.96193976625564348 0.30865828381745519
vt 0.5 0.5
vt 1 0.5
vt 0.99039264020161522 0.40245483899193563
g Disc
f 1/1/1 2/2/2 3/3/3
f 4/4/4 5/5/5 6/6/6
f 7/7/7 8/8/8 9/9/9
f 10/10/10 11/11/11 12/12/12
f 13/13/13 14/14/14 15/15/15
f 16/16/16 17/17/17 18/18/18
f 19/19/19 20/20/20 21/21/21
f 22/22/22 23/23/23 24/24/24
f 25/25/25 26/26/26 27/27/27
f 28/28/28 29/29/29 30/30/30
f 31/31/31 32/32/32 33/33/33
f 34/34/34 35/35/35 36/36/36
f 37/37/37 38/38/38 39/39/39
f 40/40/40 41/41/41 42/42/42
f 43/43/43 44/44/44 45/45/45
f 46/46/46 47/47/47 48/48/48
f 49/49/49 50/50/50 51/51/51
f 52/52/52 53/53/53 54/54/54
f 55/55/55 56/56/56 57/57/57
f 58/58/58 59/59/59 60/60/60
f 61/61/61 62/62/62 63/63/63
f 64/64/64 65/65/65 66/66/66
f 67/67/67 68/68/68 69/69/69
f 70/70/70 71/71/71 72/72/72
f 73/73/73 74/74/74 75/75/75
f 76/76/76 77/77/77 78/78/78
f 79/79/79 80/80/80 81/81/81
f 82/82/82 83/83/83 84/84/84
f 85/85/85 86/86/86 87/87/87
f 88/88/88 89/89/89 90/90/90
f 91/91/91 92/92/92 93/93/93
f 94/94/94 95/95/95 96/96/96